<mxfile host="app.diagrams.net" modified="2021-06-17T14:17:36.011Z" agent="5.0 (Linux; Android 10; CPH1937) AppleWebKit/537.36 (KHTML, like Gecko) Chrome/91.0.4472.101 Mobile Safari/537.36" etag="KxAHces0EP931FjLeC4J" version="14.8.0" type="github">
  <diagram id="xI1E16876IzFeNGsEw6-" name="Page-1">
    <mxGraphModel dx="435" dy="908" grid="1" gridSize="10" guides="1" tooltips="1" connect="1" arrows="1" fold="1" page="1" pageScale="1" pageWidth="827" pageHeight="1169" math="0" shadow="0">
      <root>
        <mxCell id="0" />
        <mxCell id="1" parent="0" />
        <mxCell id="RjsFYGVdtqE5ZYCG5bTI-1" value="Cửa hàng " style="shape=table;startSize=30;container=1;collapsible=1;childLayout=tableLayout;fixedRows=1;rowLines=0;fontStyle=1;align=center;resizeLast=1;" vertex="1" parent="1">
          <mxGeometry x="60" y="40" width="180" height="100" as="geometry" />
        </mxCell>
        <mxCell id="RjsFYGVdtqE5ZYCG5bTI-2" value="" style="shape=partialRectangle;collapsible=0;dropTarget=0;pointerEvents=0;fillColor=none;top=0;left=0;bottom=1;right=0;points=[[0,0.5],[1,0.5]];portConstraint=eastwest;" vertex="1" parent="RjsFYGVdtqE5ZYCG5bTI-1">
          <mxGeometry y="30" width="180" height="30" as="geometry" />
        </mxCell>
        <mxCell id="RjsFYGVdtqE5ZYCG5bTI-3" value="PK" style="shape=partialRectangle;connectable=0;fillColor=none;top=0;left=0;bottom=0;right=0;fontStyle=1;overflow=hidden;" vertex="1" parent="RjsFYGVdtqE5ZYCG5bTI-2">
          <mxGeometry width="30" height="30" as="geometry" />
        </mxCell>
        <mxCell id="RjsFYGVdtqE5ZYCG5bTI-4" value="Tên cửa hàng" style="shape=partialRectangle;connectable=0;fillColor=none;top=0;left=0;bottom=0;right=0;align=left;spacingLeft=6;fontStyle=5;overflow=hidden;" vertex="1" parent="RjsFYGVdtqE5ZYCG5bTI-2">
          <mxGeometry x="30" width="150" height="30" as="geometry" />
        </mxCell>
        <mxCell id="RjsFYGVdtqE5ZYCG5bTI-11" value="" style="shape=partialRectangle;collapsible=0;dropTarget=0;pointerEvents=0;fillColor=none;top=0;left=0;bottom=0;right=0;points=[[0,0.5],[1,0.5]];portConstraint=eastwest;" vertex="1" parent="RjsFYGVdtqE5ZYCG5bTI-1">
          <mxGeometry y="60" width="180" height="30" as="geometry" />
        </mxCell>
        <mxCell id="RjsFYGVdtqE5ZYCG5bTI-12" value="FK" style="shape=partialRectangle;connectable=0;fillColor=none;top=0;left=0;bottom=0;right=0;editable=1;overflow=hidden;" vertex="1" parent="RjsFYGVdtqE5ZYCG5bTI-11">
          <mxGeometry width="30" height="30" as="geometry" />
        </mxCell>
        <mxCell id="RjsFYGVdtqE5ZYCG5bTI-13" value="Nhà cung cấp" style="shape=partialRectangle;connectable=0;fillColor=none;top=0;left=0;bottom=0;right=0;align=left;spacingLeft=6;overflow=hidden;" vertex="1" parent="RjsFYGVdtqE5ZYCG5bTI-11">
          <mxGeometry x="30" width="150" height="30" as="geometry" />
        </mxCell>
        <mxCell id="RjsFYGVdtqE5ZYCG5bTI-14" value="Nhà cung cấp" style="shape=table;startSize=30;container=1;collapsible=1;childLayout=tableLayout;fixedRows=1;rowLines=0;fontStyle=1;align=center;resizeLast=1;" vertex="1" parent="1">
          <mxGeometry x="340" y="40" width="180" height="130" as="geometry" />
        </mxCell>
        <mxCell id="RjsFYGVdtqE5ZYCG5bTI-15" value="" style="shape=partialRectangle;collapsible=0;dropTarget=0;pointerEvents=0;fillColor=none;top=0;left=0;bottom=1;right=0;points=[[0,0.5],[1,0.5]];portConstraint=eastwest;" vertex="1" parent="RjsFYGVdtqE5ZYCG5bTI-14">
          <mxGeometry y="30" width="180" height="30" as="geometry" />
        </mxCell>
        <mxCell id="RjsFYGVdtqE5ZYCG5bTI-16" value="PK" style="shape=partialRectangle;connectable=0;fillColor=none;top=0;left=0;bottom=0;right=0;fontStyle=1;overflow=hidden;" vertex="1" parent="RjsFYGVdtqE5ZYCG5bTI-15">
          <mxGeometry width="30" height="30" as="geometry" />
        </mxCell>
        <mxCell id="RjsFYGVdtqE5ZYCG5bTI-17" value="Nhà cung cấp" style="shape=partialRectangle;connectable=0;fillColor=none;top=0;left=0;bottom=0;right=0;align=left;spacingLeft=6;fontStyle=5;overflow=hidden;" vertex="1" parent="RjsFYGVdtqE5ZYCG5bTI-15">
          <mxGeometry x="30" width="150" height="30" as="geometry" />
        </mxCell>
        <mxCell id="RjsFYGVdtqE5ZYCG5bTI-18" value="" style="shape=partialRectangle;collapsible=0;dropTarget=0;pointerEvents=0;fillColor=none;top=0;left=0;bottom=0;right=0;points=[[0,0.5],[1,0.5]];portConstraint=eastwest;" vertex="1" parent="RjsFYGVdtqE5ZYCG5bTI-14">
          <mxGeometry y="60" width="180" height="30" as="geometry" />
        </mxCell>
        <mxCell id="RjsFYGVdtqE5ZYCG5bTI-19" value="" style="shape=partialRectangle;connectable=0;fillColor=none;top=0;left=0;bottom=0;right=0;editable=1;overflow=hidden;" vertex="1" parent="RjsFYGVdtqE5ZYCG5bTI-18">
          <mxGeometry width="30" height="30" as="geometry" />
        </mxCell>
        <mxCell id="RjsFYGVdtqE5ZYCG5bTI-20" value="Tên " style="shape=partialRectangle;connectable=0;fillColor=none;top=0;left=0;bottom=0;right=0;align=left;spacingLeft=6;overflow=hidden;" vertex="1" parent="RjsFYGVdtqE5ZYCG5bTI-18">
          <mxGeometry x="30" width="150" height="30" as="geometry" />
        </mxCell>
        <mxCell id="RjsFYGVdtqE5ZYCG5bTI-21" value="" style="shape=partialRectangle;collapsible=0;dropTarget=0;pointerEvents=0;fillColor=none;top=0;left=0;bottom=0;right=0;points=[[0,0.5],[1,0.5]];portConstraint=eastwest;" vertex="1" parent="RjsFYGVdtqE5ZYCG5bTI-14">
          <mxGeometry y="90" width="180" height="30" as="geometry" />
        </mxCell>
        <mxCell id="RjsFYGVdtqE5ZYCG5bTI-22" value="" style="shape=partialRectangle;connectable=0;fillColor=none;top=0;left=0;bottom=0;right=0;editable=1;overflow=hidden;" vertex="1" parent="RjsFYGVdtqE5ZYCG5bTI-21">
          <mxGeometry width="30" height="30" as="geometry" />
        </mxCell>
        <mxCell id="RjsFYGVdtqE5ZYCG5bTI-23" value="Địa chỉ" style="shape=partialRectangle;connectable=0;fillColor=none;top=0;left=0;bottom=0;right=0;align=left;spacingLeft=6;overflow=hidden;" vertex="1" parent="RjsFYGVdtqE5ZYCG5bTI-21">
          <mxGeometry x="30" width="150" height="30" as="geometry" />
        </mxCell>
        <mxCell id="RjsFYGVdtqE5ZYCG5bTI-27" value="Mặt hàng" style="shape=table;startSize=30;container=1;collapsible=1;childLayout=tableLayout;fixedRows=1;rowLines=0;fontStyle=1;align=center;resizeLast=1;" vertex="1" parent="1">
          <mxGeometry x="620" y="40" width="180" height="160" as="geometry" />
        </mxCell>
        <mxCell id="RjsFYGVdtqE5ZYCG5bTI-28" value="" style="shape=partialRectangle;collapsible=0;dropTarget=0;pointerEvents=0;fillColor=none;top=0;left=0;bottom=1;right=0;points=[[0,0.5],[1,0.5]];portConstraint=eastwest;" vertex="1" parent="RjsFYGVdtqE5ZYCG5bTI-27">
          <mxGeometry y="30" width="180" height="30" as="geometry" />
        </mxCell>
        <mxCell id="RjsFYGVdtqE5ZYCG5bTI-29" value="PK" style="shape=partialRectangle;connectable=0;fillColor=none;top=0;left=0;bottom=0;right=0;fontStyle=1;overflow=hidden;" vertex="1" parent="RjsFYGVdtqE5ZYCG5bTI-28">
          <mxGeometry width="30" height="30" as="geometry" />
        </mxCell>
        <mxCell id="RjsFYGVdtqE5ZYCG5bTI-30" value="Mã hàng" style="shape=partialRectangle;connectable=0;fillColor=none;top=0;left=0;bottom=0;right=0;align=left;spacingLeft=6;fontStyle=5;overflow=hidden;" vertex="1" parent="RjsFYGVdtqE5ZYCG5bTI-28">
          <mxGeometry x="30" width="150" height="30" as="geometry" />
        </mxCell>
        <mxCell id="RjsFYGVdtqE5ZYCG5bTI-31" value="" style="shape=partialRectangle;collapsible=0;dropTarget=0;pointerEvents=0;fillColor=none;top=0;left=0;bottom=0;right=0;points=[[0,0.5],[1,0.5]];portConstraint=eastwest;" vertex="1" parent="RjsFYGVdtqE5ZYCG5bTI-27">
          <mxGeometry y="60" width="180" height="30" as="geometry" />
        </mxCell>
        <mxCell id="RjsFYGVdtqE5ZYCG5bTI-32" value="" style="shape=partialRectangle;connectable=0;fillColor=none;top=0;left=0;bottom=0;right=0;editable=1;overflow=hidden;" vertex="1" parent="RjsFYGVdtqE5ZYCG5bTI-31">
          <mxGeometry width="30" height="30" as="geometry" />
        </mxCell>
        <mxCell id="RjsFYGVdtqE5ZYCG5bTI-33" value="Row 1" style="shape=partialRectangle;connectable=0;fillColor=none;top=0;left=0;bottom=0;right=0;align=left;spacingLeft=6;overflow=hidden;" vertex="1" parent="RjsFYGVdtqE5ZYCG5bTI-31">
          <mxGeometry x="30" width="150" height="30" as="geometry" />
        </mxCell>
        <mxCell id="RjsFYGVdtqE5ZYCG5bTI-34" value="" style="shape=partialRectangle;collapsible=0;dropTarget=0;pointerEvents=0;fillColor=none;top=0;left=0;bottom=0;right=0;points=[[0,0.5],[1,0.5]];portConstraint=eastwest;" vertex="1" parent="RjsFYGVdtqE5ZYCG5bTI-27">
          <mxGeometry y="90" width="180" height="30" as="geometry" />
        </mxCell>
        <mxCell id="RjsFYGVdtqE5ZYCG5bTI-35" value="" style="shape=partialRectangle;connectable=0;fillColor=none;top=0;left=0;bottom=0;right=0;editable=1;overflow=hidden;" vertex="1" parent="RjsFYGVdtqE5ZYCG5bTI-34">
          <mxGeometry width="30" height="30" as="geometry" />
        </mxCell>
        <mxCell id="RjsFYGVdtqE5ZYCG5bTI-36" value="Row 2" style="shape=partialRectangle;connectable=0;fillColor=none;top=0;left=0;bottom=0;right=0;align=left;spacingLeft=6;overflow=hidden;" vertex="1" parent="RjsFYGVdtqE5ZYCG5bTI-34">
          <mxGeometry x="30" width="150" height="30" as="geometry" />
        </mxCell>
        <mxCell id="RjsFYGVdtqE5ZYCG5bTI-37" value="" style="shape=partialRectangle;collapsible=0;dropTarget=0;pointerEvents=0;fillColor=none;top=0;left=0;bottom=0;right=0;points=[[0,0.5],[1,0.5]];portConstraint=eastwest;" vertex="1" parent="RjsFYGVdtqE5ZYCG5bTI-27">
          <mxGeometry y="120" width="180" height="30" as="geometry" />
        </mxCell>
        <mxCell id="RjsFYGVdtqE5ZYCG5bTI-38" value="" style="shape=partialRectangle;connectable=0;fillColor=none;top=0;left=0;bottom=0;right=0;editable=1;overflow=hidden;" vertex="1" parent="RjsFYGVdtqE5ZYCG5bTI-37">
          <mxGeometry width="30" height="30" as="geometry" />
        </mxCell>
        <mxCell id="RjsFYGVdtqE5ZYCG5bTI-39" value="Row 3" style="shape=partialRectangle;connectable=0;fillColor=none;top=0;left=0;bottom=0;right=0;align=left;spacingLeft=6;overflow=hidden;" vertex="1" parent="RjsFYGVdtqE5ZYCG5bTI-37">
          <mxGeometry x="30" width="150" height="30" as="geometry" />
        </mxCell>
        <mxCell id="RjsFYGVdtqE5ZYCG5bTI-40" value="Table" style="shape=table;startSize=30;container=1;collapsible=1;childLayout=tableLayout;fixedRows=1;rowLines=0;fontStyle=1;align=center;resizeLast=1;" vertex="1" parent="1">
          <mxGeometry x="60" y="320" width="180" height="160" as="geometry" />
        </mxCell>
        <mxCell id="RjsFYGVdtqE5ZYCG5bTI-41" value="" style="shape=partialRectangle;collapsible=0;dropTarget=0;pointerEvents=0;fillColor=none;top=0;left=0;bottom=1;right=0;points=[[0,0.5],[1,0.5]];portConstraint=eastwest;" vertex="1" parent="RjsFYGVdtqE5ZYCG5bTI-40">
          <mxGeometry y="30" width="180" height="30" as="geometry" />
        </mxCell>
        <mxCell id="RjsFYGVdtqE5ZYCG5bTI-42" value="PK" style="shape=partialRectangle;connectable=0;fillColor=none;top=0;left=0;bottom=0;right=0;fontStyle=1;overflow=hidden;" vertex="1" parent="RjsFYGVdtqE5ZYCG5bTI-41">
          <mxGeometry width="30" height="30" as="geometry" />
        </mxCell>
        <mxCell id="RjsFYGVdtqE5ZYCG5bTI-43" value="UniqueID" style="shape=partialRectangle;connectable=0;fillColor=none;top=0;left=0;bottom=0;right=0;align=left;spacingLeft=6;fontStyle=5;overflow=hidden;" vertex="1" parent="RjsFYGVdtqE5ZYCG5bTI-41">
          <mxGeometry x="30" width="150" height="30" as="geometry" />
        </mxCell>
        <mxCell id="RjsFYGVdtqE5ZYCG5bTI-44" value="" style="shape=partialRectangle;collapsible=0;dropTarget=0;pointerEvents=0;fillColor=none;top=0;left=0;bottom=0;right=0;points=[[0,0.5],[1,0.5]];portConstraint=eastwest;" vertex="1" parent="RjsFYGVdtqE5ZYCG5bTI-40">
          <mxGeometry y="60" width="180" height="30" as="geometry" />
        </mxCell>
        <mxCell id="RjsFYGVdtqE5ZYCG5bTI-45" value="" style="shape=partialRectangle;connectable=0;fillColor=none;top=0;left=0;bottom=0;right=0;editable=1;overflow=hidden;" vertex="1" parent="RjsFYGVdtqE5ZYCG5bTI-44">
          <mxGeometry width="30" height="30" as="geometry" />
        </mxCell>
        <mxCell id="RjsFYGVdtqE5ZYCG5bTI-46" value="Row 1" style="shape=partialRectangle;connectable=0;fillColor=none;top=0;left=0;bottom=0;right=0;align=left;spacingLeft=6;overflow=hidden;" vertex="1" parent="RjsFYGVdtqE5ZYCG5bTI-44">
          <mxGeometry x="30" width="150" height="30" as="geometry" />
        </mxCell>
        <mxCell id="RjsFYGVdtqE5ZYCG5bTI-47" value="" style="shape=partialRectangle;collapsible=0;dropTarget=0;pointerEvents=0;fillColor=none;top=0;left=0;bottom=0;right=0;points=[[0,0.5],[1,0.5]];portConstraint=eastwest;" vertex="1" parent="RjsFYGVdtqE5ZYCG5bTI-40">
          <mxGeometry y="90" width="180" height="30" as="geometry" />
        </mxCell>
        <mxCell id="RjsFYGVdtqE5ZYCG5bTI-48" value="" style="shape=partialRectangle;connectable=0;fillColor=none;top=0;left=0;bottom=0;right=0;editable=1;overflow=hidden;" vertex="1" parent="RjsFYGVdtqE5ZYCG5bTI-47">
          <mxGeometry width="30" height="30" as="geometry" />
        </mxCell>
        <mxCell id="RjsFYGVdtqE5ZYCG5bTI-49" value="Row 2" style="shape=partialRectangle;connectable=0;fillColor=none;top=0;left=0;bottom=0;right=0;align=left;spacingLeft=6;overflow=hidden;" vertex="1" parent="RjsFYGVdtqE5ZYCG5bTI-47">
          <mxGeometry x="30" width="150" height="30" as="geometry" />
        </mxCell>
        <mxCell id="RjsFYGVdtqE5ZYCG5bTI-50" value="" style="shape=partialRectangle;collapsible=0;dropTarget=0;pointerEvents=0;fillColor=none;top=0;left=0;bottom=0;right=0;points=[[0,0.5],[1,0.5]];portConstraint=eastwest;" vertex="1" parent="RjsFYGVdtqE5ZYCG5bTI-40">
          <mxGeometry y="120" width="180" height="30" as="geometry" />
        </mxCell>
        <mxCell id="RjsFYGVdtqE5ZYCG5bTI-51" value="" style="shape=partialRectangle;connectable=0;fillColor=none;top=0;left=0;bottom=0;right=0;editable=1;overflow=hidden;" vertex="1" parent="RjsFYGVdtqE5ZYCG5bTI-50">
          <mxGeometry width="30" height="30" as="geometry" />
        </mxCell>
        <mxCell id="RjsFYGVdtqE5ZYCG5bTI-52" value="Row 3" style="shape=partialRectangle;connectable=0;fillColor=none;top=0;left=0;bottom=0;right=0;align=left;spacingLeft=6;overflow=hidden;" vertex="1" parent="RjsFYGVdtqE5ZYCG5bTI-50">
          <mxGeometry x="30" width="150" height="30" as="geometry" />
        </mxCell>
        <mxCell id="RjsFYGVdtqE5ZYCG5bTI-53" value="Table" style="shape=table;startSize=30;container=1;collapsible=1;childLayout=tableLayout;fixedRows=1;rowLines=0;fontStyle=1;align=center;resizeLast=1;" vertex="1" parent="1">
          <mxGeometry x="630" y="330" width="180" height="160" as="geometry" />
        </mxCell>
        <mxCell id="RjsFYGVdtqE5ZYCG5bTI-54" value="" style="shape=partialRectangle;collapsible=0;dropTarget=0;pointerEvents=0;fillColor=none;top=0;left=0;bottom=1;right=0;points=[[0,0.5],[1,0.5]];portConstraint=eastwest;" vertex="1" parent="RjsFYGVdtqE5ZYCG5bTI-53">
          <mxGeometry y="30" width="180" height="30" as="geometry" />
        </mxCell>
        <mxCell id="RjsFYGVdtqE5ZYCG5bTI-55" value="PK" style="shape=partialRectangle;connectable=0;fillColor=none;top=0;left=0;bottom=0;right=0;fontStyle=1;overflow=hidden;" vertex="1" parent="RjsFYGVdtqE5ZYCG5bTI-54">
          <mxGeometry width="30" height="30" as="geometry" />
        </mxCell>
        <mxCell id="RjsFYGVdtqE5ZYCG5bTI-56" value="UniqueID" style="shape=partialRectangle;connectable=0;fillColor=none;top=0;left=0;bottom=0;right=0;align=left;spacingLeft=6;fontStyle=5;overflow=hidden;" vertex="1" parent="RjsFYGVdtqE5ZYCG5bTI-54">
          <mxGeometry x="30" width="150" height="30" as="geometry" />
        </mxCell>
        <mxCell id="RjsFYGVdtqE5ZYCG5bTI-57" value="" style="shape=partialRectangle;collapsible=0;dropTarget=0;pointerEvents=0;fillColor=none;top=0;left=0;bottom=0;right=0;points=[[0,0.5],[1,0.5]];portConstraint=eastwest;" vertex="1" parent="RjsFYGVdtqE5ZYCG5bTI-53">
          <mxGeometry y="60" width="180" height="30" as="geometry" />
        </mxCell>
        <mxCell id="RjsFYGVdtqE5ZYCG5bTI-58" value="" style="shape=partialRectangle;connectable=0;fillColor=none;top=0;left=0;bottom=0;right=0;editable=1;overflow=hidden;" vertex="1" parent="RjsFYGVdtqE5ZYCG5bTI-57">
          <mxGeometry width="30" height="30" as="geometry" />
        </mxCell>
        <mxCell id="RjsFYGVdtqE5ZYCG5bTI-59" value="Row 1" style="shape=partialRectangle;connectable=0;fillColor=none;top=0;left=0;bottom=0;right=0;align=left;spacingLeft=6;overflow=hidden;" vertex="1" parent="RjsFYGVdtqE5ZYCG5bTI-57">
          <mxGeometry x="30" width="150" height="30" as="geometry" />
        </mxCell>
        <mxCell id="RjsFYGVdtqE5ZYCG5bTI-60" value="" style="shape=partialRectangle;collapsible=0;dropTarget=0;pointerEvents=0;fillColor=none;top=0;left=0;bottom=0;right=0;points=[[0,0.5],[1,0.5]];portConstraint=eastwest;" vertex="1" parent="RjsFYGVdtqE5ZYCG5bTI-53">
          <mxGeometry y="90" width="180" height="30" as="geometry" />
        </mxCell>
        <mxCell id="RjsFYGVdtqE5ZYCG5bTI-61" value="" style="shape=partialRectangle;connectable=0;fillColor=none;top=0;left=0;bottom=0;right=0;editable=1;overflow=hidden;" vertex="1" parent="RjsFYGVdtqE5ZYCG5bTI-60">
          <mxGeometry width="30" height="30" as="geometry" />
        </mxCell>
        <mxCell id="RjsFYGVdtqE5ZYCG5bTI-62" value="Row 2" style="shape=partialRectangle;connectable=0;fillColor=none;top=0;left=0;bottom=0;right=0;align=left;spacingLeft=6;overflow=hidden;" vertex="1" parent="RjsFYGVdtqE5ZYCG5bTI-60">
          <mxGeometry x="30" width="150" height="30" as="geometry" />
        </mxCell>
        <mxCell id="RjsFYGVdtqE5ZYCG5bTI-63" value="" style="shape=partialRectangle;collapsible=0;dropTarget=0;pointerEvents=0;fillColor=none;top=0;left=0;bottom=0;right=0;points=[[0,0.5],[1,0.5]];portConstraint=eastwest;" vertex="1" parent="RjsFYGVdtqE5ZYCG5bTI-53">
          <mxGeometry y="120" width="180" height="30" as="geometry" />
        </mxCell>
        <mxCell id="RjsFYGVdtqE5ZYCG5bTI-64" value="" style="shape=partialRectangle;connectable=0;fillColor=none;top=0;left=0;bottom=0;right=0;editable=1;overflow=hidden;" vertex="1" parent="RjsFYGVdtqE5ZYCG5bTI-63">
          <mxGeometry width="30" height="30" as="geometry" />
        </mxCell>
        <mxCell id="RjsFYGVdtqE5ZYCG5bTI-65" value="Row 3" style="shape=partialRectangle;connectable=0;fillColor=none;top=0;left=0;bottom=0;right=0;align=left;spacingLeft=6;overflow=hidden;" vertex="1" parent="RjsFYGVdtqE5ZYCG5bTI-63">
          <mxGeometry x="30" width="150" height="30" as="geometry" />
        </mxCell>
        <mxCell id="RjsFYGVdtqE5ZYCG5bTI-66" value="Table" style="shape=table;startSize=30;container=1;collapsible=1;childLayout=tableLayout;fixedRows=1;rowLines=0;fontStyle=1;align=center;resizeLast=1;" vertex="1" parent="1">
          <mxGeometry x="340" y="310" width="180" height="160" as="geometry" />
        </mxCell>
        <mxCell id="RjsFYGVdtqE5ZYCG5bTI-67" value="" style="shape=partialRectangle;collapsible=0;dropTarget=0;pointerEvents=0;fillColor=none;top=0;left=0;bottom=1;right=0;points=[[0,0.5],[1,0.5]];portConstraint=eastwest;" vertex="1" parent="RjsFYGVdtqE5ZYCG5bTI-66">
          <mxGeometry y="30" width="180" height="30" as="geometry" />
        </mxCell>
        <mxCell id="RjsFYGVdtqE5ZYCG5bTI-68" value="PK" style="shape=partialRectangle;connectable=0;fillColor=none;top=0;left=0;bottom=0;right=0;fontStyle=1;overflow=hidden;" vertex="1" parent="RjsFYGVdtqE5ZYCG5bTI-67">
          <mxGeometry width="30" height="30" as="geometry" />
        </mxCell>
        <mxCell id="RjsFYGVdtqE5ZYCG5bTI-69" value="UniqueID" style="shape=partialRectangle;connectable=0;fillColor=none;top=0;left=0;bottom=0;right=0;align=left;spacingLeft=6;fontStyle=5;overflow=hidden;" vertex="1" parent="RjsFYGVdtqE5ZYCG5bTI-67">
          <mxGeometry x="30" width="150" height="30" as="geometry" />
        </mxCell>
        <mxCell id="RjsFYGVdtqE5ZYCG5bTI-70" value="" style="shape=partialRectangle;collapsible=0;dropTarget=0;pointerEvents=0;fillColor=none;top=0;left=0;bottom=0;right=0;points=[[0,0.5],[1,0.5]];portConstraint=eastwest;" vertex="1" parent="RjsFYGVdtqE5ZYCG5bTI-66">
          <mxGeometry y="60" width="180" height="30" as="geometry" />
        </mxCell>
        <mxCell id="RjsFYGVdtqE5ZYCG5bTI-71" value="" style="shape=partialRectangle;connectable=0;fillColor=none;top=0;left=0;bottom=0;right=0;editable=1;overflow=hidden;" vertex="1" parent="RjsFYGVdtqE5ZYCG5bTI-70">
          <mxGeometry width="30" height="30" as="geometry" />
        </mxCell>
        <mxCell id="RjsFYGVdtqE5ZYCG5bTI-72" value="Row 1" style="shape=partialRectangle;connectable=0;fillColor=none;top=0;left=0;bottom=0;right=0;align=left;spacingLeft=6;overflow=hidden;" vertex="1" parent="RjsFYGVdtqE5ZYCG5bTI-70">
          <mxGeometry x="30" width="150" height="30" as="geometry" />
        </mxCell>
        <mxCell id="RjsFYGVdtqE5ZYCG5bTI-73" value="" style="shape=partialRectangle;collapsible=0;dropTarget=0;pointerEvents=0;fillColor=none;top=0;left=0;bottom=0;right=0;points=[[0,0.5],[1,0.5]];portConstraint=eastwest;" vertex="1" parent="RjsFYGVdtqE5ZYCG5bTI-66">
          <mxGeometry y="90" width="180" height="30" as="geometry" />
        </mxCell>
        <mxCell id="RjsFYGVdtqE5ZYCG5bTI-74" value="" style="shape=partialRectangle;connectable=0;fillColor=none;top=0;left=0;bottom=0;right=0;editable=1;overflow=hidden;" vertex="1" parent="RjsFYGVdtqE5ZYCG5bTI-73">
          <mxGeometry width="30" height="30" as="geometry" />
        </mxCell>
        <mxCell id="RjsFYGVdtqE5ZYCG5bTI-75" value="Row 2" style="shape=partialRectangle;connectable=0;fillColor=none;top=0;left=0;bottom=0;right=0;align=left;spacingLeft=6;overflow=hidden;" vertex="1" parent="RjsFYGVdtqE5ZYCG5bTI-73">
          <mxGeometry x="30" width="150" height="30" as="geometry" />
        </mxCell>
        <mxCell id="RjsFYGVdtqE5ZYCG5bTI-76" value="" style="shape=partialRectangle;collapsible=0;dropTarget=0;pointerEvents=0;fillColor=none;top=0;left=0;bottom=0;right=0;points=[[0,0.5],[1,0.5]];portConstraint=eastwest;" vertex="1" parent="RjsFYGVdtqE5ZYCG5bTI-66">
          <mxGeometry y="120" width="180" height="30" as="geometry" />
        </mxCell>
        <mxCell id="RjsFYGVdtqE5ZYCG5bTI-77" value="" style="shape=partialRectangle;connectable=0;fillColor=none;top=0;left=0;bottom=0;right=0;editable=1;overflow=hidden;" vertex="1" parent="RjsFYGVdtqE5ZYCG5bTI-76">
          <mxGeometry width="30" height="30" as="geometry" />
        </mxCell>
        <mxCell id="RjsFYGVdtqE5ZYCG5bTI-78" value="Row 3" style="shape=partialRectangle;connectable=0;fillColor=none;top=0;left=0;bottom=0;right=0;align=left;spacingLeft=6;overflow=hidden;" vertex="1" parent="RjsFYGVdtqE5ZYCG5bTI-76">
          <mxGeometry x="30" width="150" height="30" as="geometry" />
        </mxCell>
      </root>
    </mxGraphModel>
  </diagram>
</mxfile>
